<?xml version="1.0" standalone="no"?>
<!DOCTYPE svg PUBLIC "-//W3C//DTD SVG 20010904//EN"
 "http://www.w3.org/TR/2001/REC-SVG-20010904/DTD/svg10.dtd">
<svg version="1.0" xmlns="http://www.w3.org/2000/svg"
 width="128.000000pt" height="128.000000pt" viewBox="0 0 128.000000 128.000000"
 preserveAspectRatio="xMidYMid meet">
<metadata>
Created by potrace 1.11, written by Peter Selinger 2001-2013
</metadata>
<g transform="translate(0.000000,128.000000) scale(0.100000,-0.100000)"
fill="#000000" stroke="none">
<path d="M550 1109 c-125 -20 -275 -131 -332 -244 -26 -51 -58 -173 -58 -221
0 -18 -12 -38 -39 -63 -22 -20 -42 -45 -46 -57 -9 -33 29 -72 88 -89 44 -13
57 -22 80 -60 66 -103 189 -183 319 -206 237 -42 485 117 540 347 9 39 20 55
52 79 78 59 66 128 -25 151 -67 17 -71 13 -63 -71 l7 -73 -59 -21 c-179 -68
-423 -112 -632 -114 -136 -2 -133 -3 -153 68 -26 93 -7 231 45 319 35 60 128
143 192 173 68 31 168 44 243 32 115 -18 254 -111 294 -196 12 -28 46 -40 58
-22 21 34 -104 175 -197 222 -102 52 -195 65 -314 46z m598 -442 c-5 -34 -28
-33 -28 2 0 23 4 29 16 24 8 -3 14 -15 12 -26z m-978 -120 c0 -1 4 -16 9 -34
9 -31 9 -31 -20 -21 -31 11 -37 26 -17 46 11 11 28 16 28 9z m874 -39 c-31
-102 -120 -203 -218 -249 -167 -78 -359 -46 -484 81 -29 29 -52 56 -52 59 0 4
75 12 168 18 204 15 324 35 462 78 131 41 133 41 124 13z"/>
<path d="M540 961 c-65 -20 -160 -89 -160 -117 0 -23 19 -16 53 18 28 27 90
61 150 82 10 3 15 10 12 16 -7 11 -19 12 -55 1z"/>
<path d="M321 739 c-14 -42 -14 -49 3 -49 8 0 17 8 20 18 2 9 7 27 11 40 10
36 -21 27 -34 -9z"/>
</g>
</svg>
